<svg width="16" height="16" viewBox="0 0 16 16" fill="none" xmlns="http://www.w3.org/2000/svg">
<path d="M14.25 6.74999H4.76249L8.88749 2.63749C9.12287 2.40211 9.25511 2.08286 9.25511 1.74999C9.25511 1.41711 9.12287 1.09787 8.88749 0.862488C8.65211 0.627108 8.33287 0.494873 7.99999 0.494873C7.66712 0.494873 7.34787 0.627108 7.11249 0.862488L0.862493 7.11249C0.748692 7.23137 0.659485 7.37155 0.599992 7.52499C0.47497 7.82931 0.47497 8.17066 0.599992 8.47499C0.659485 8.62843 0.748692 8.76861 0.862493 8.88749L7.11249 15.1375C7.2287 15.2546 7.36695 15.3476 7.51927 15.4111C7.6716 15.4746 7.83498 15.5072 7.99999 15.5072C8.16501 15.5072 8.32839 15.4746 8.48071 15.4111C8.63304 15.3476 8.77129 15.2546 8.88749 15.1375C9.00465 15.0213 9.09765 14.883 9.16111 14.7307C9.22457 14.5784 9.25724 14.415 9.25724 14.25C9.25724 14.085 9.22457 13.9216 9.16111 13.7693C9.09765 13.6169 9.00465 13.4787 8.88749 13.3625L4.76249 9.24999H14.25C14.5815 9.24999 14.8995 9.11829 15.1339 8.88387C15.3683 8.64945 15.5 8.33151 15.5 7.99999C15.5 7.66847 15.3683 7.35052 15.1339 7.1161C14.8995 6.88168 14.5815 6.74999 14.25 6.74999Z" fill="#2980B9"/>
</svg>
