<svg width="18" height="20" viewBox="0 0 18 20" fill="none" xmlns="http://www.w3.org/2000/svg">
<path d="M8.99984 15.8333C9.16466 15.8333 9.32577 15.7844 9.46281 15.6929C9.59985 15.6013 9.70666 15.4712 9.76974 15.3189C9.83281 15.1666 9.84931 14.9991 9.81716 14.8374C9.785 14.6758 9.70564 14.5273 9.58909 14.4107C9.47255 14.2942 9.32406 14.2148 9.16241 14.1827C9.00076 14.1505 8.83321 14.167 8.68093 14.2301C8.52866 14.2932 8.39851 14.4 8.30695 14.537C8.21538 14.674 8.1665 14.8352 8.1665 15C8.1665 15.221 8.2543 15.433 8.41058 15.5892C8.56686 15.7455 8.77882 15.8333 8.99984 15.8333ZM13.1665 15.8333C13.3313 15.8333 13.4924 15.7844 13.6295 15.6929C13.7665 15.6013 13.8733 15.4712 13.9364 15.3189C13.9995 15.1666 14.016 14.9991 13.9838 14.8374C13.9517 14.6758 13.8723 14.5273 13.7558 14.4107C13.6392 14.2942 13.4907 14.2148 13.3291 14.1827C13.1674 14.1505 12.9999 14.167 12.8476 14.2301C12.6953 14.2932 12.5652 14.4 12.4736 14.537C12.382 14.674 12.3332 14.8352 12.3332 15C12.3332 15.221 12.421 15.433 12.5772 15.5892C12.7335 15.7455 12.9455 15.8333 13.1665 15.8333ZM13.1665 12.5C13.3313 12.5 13.4924 12.4511 13.6295 12.3595C13.7665 12.268 13.8733 12.1378 13.9364 11.9855C13.9995 11.8333 14.016 11.6657 13.9838 11.5041C13.9517 11.3424 13.8723 11.1939 13.7558 11.0774C13.6392 10.9608 13.4907 10.8815 13.3291 10.8493C13.1674 10.8172 12.9999 10.8337 12.8476 10.8967C12.6953 10.9598 12.5652 11.0666 12.4736 11.2037C12.382 11.3407 12.3332 11.5018 12.3332 11.6666C12.3332 11.8877 12.421 12.0996 12.5772 12.2559C12.7335 12.4122 12.9455 12.5 13.1665 12.5ZM8.99984 12.5C9.16466 12.5 9.32577 12.4511 9.46281 12.3595C9.59985 12.268 9.70666 12.1378 9.76974 11.9855C9.83281 11.8333 9.84931 11.6657 9.81716 11.5041C9.785 11.3424 9.70564 11.1939 9.58909 11.0774C9.47255 10.9608 9.32406 10.8815 9.16241 10.8493C9.00076 10.8172 8.83321 10.8337 8.68093 10.8967C8.52866 10.9598 8.39851 11.0666 8.30695 11.2037C8.21538 11.3407 8.1665 11.5018 8.1665 11.6666C8.1665 11.8877 8.2543 12.0996 8.41058 12.2559C8.56686 12.4122 8.77882 12.5 8.99984 12.5ZM14.8332 2.49998H13.9998V1.66665C13.9998 1.44563 13.912 1.23367 13.7558 1.07739C13.5995 0.92111 13.3875 0.833313 13.1665 0.833313C12.9455 0.833313 12.7335 0.92111 12.5772 1.07739C12.421 1.23367 12.3332 1.44563 12.3332 1.66665V2.49998H5.6665V1.66665C5.6665 1.44563 5.57871 1.23367 5.42243 1.07739C5.26615 0.92111 5.05418 0.833313 4.83317 0.833313C4.61216 0.833313 4.4002 0.92111 4.24392 1.07739C4.08764 1.23367 3.99984 1.44563 3.99984 1.66665V2.49998H3.1665C2.50346 2.49998 1.86758 2.76337 1.39874 3.23221C0.929896 3.70105 0.666504 4.33694 0.666504 4.99998V16.6666C0.666504 17.3297 0.929896 17.9656 1.39874 18.4344C1.86758 18.9033 2.50346 19.1666 3.1665 19.1666H14.8332C15.4962 19.1666 16.1321 18.9033 16.6009 18.4344C17.0698 17.9656 17.3332 17.3297 17.3332 16.6666V4.99998C17.3332 4.33694 17.0698 3.70105 16.6009 3.23221C16.1321 2.76337 15.4962 2.49998 14.8332 2.49998ZM15.6665 16.6666C15.6665 16.8877 15.5787 17.0996 15.4224 17.2559C15.2661 17.4122 15.0542 17.5 14.8332 17.5H3.1665C2.94549 17.5 2.73353 17.4122 2.57725 17.2559C2.42097 17.0996 2.33317 16.8877 2.33317 16.6666V9.16665H15.6665V16.6666ZM15.6665 7.49998H2.33317V4.99998C2.33317 4.77897 2.42097 4.567 2.57725 4.41072C2.73353 4.25444 2.94549 4.16665 3.1665 4.16665H3.99984V4.99998C3.99984 5.22099 4.08764 5.43295 4.24392 5.58923C4.4002 5.74551 4.61216 5.83331 4.83317 5.83331C5.05418 5.83331 5.26615 5.74551 5.42243 5.58923C5.57871 5.43295 5.6665 5.22099 5.6665 4.99998V4.16665H12.3332V4.99998C12.3332 5.22099 12.421 5.43295 12.5772 5.58923C12.7335 5.74551 12.9455 5.83331 13.1665 5.83331C13.3875 5.83331 13.5995 5.74551 13.7558 5.58923C13.912 5.43295 13.9998 5.22099 13.9998 4.99998V4.16665H14.8332C15.0542 4.16665 15.2661 4.25444 15.4224 4.41072C15.5787 4.567 15.6665 4.77897 15.6665 4.99998V7.49998ZM4.83317 12.5C4.99799 12.5 5.1591 12.4511 5.29615 12.3595C5.43319 12.268 5.54 12.1378 5.60307 11.9855C5.66614 11.8333 5.68265 11.6657 5.65049 11.5041C5.61834 11.3424 5.53897 11.1939 5.42243 11.0774C5.30588 10.9608 5.1574 10.8815 4.99575 10.8493C4.8341 10.8172 4.66654 10.8337 4.51427 10.8967C4.362 10.9598 4.23185 11.0666 4.14028 11.2037C4.04871 11.3407 3.99984 11.5018 3.99984 11.6666C3.99984 11.8877 4.08764 12.0996 4.24392 12.2559C4.4002 12.4122 4.61216 12.5 4.83317 12.5ZM4.83317 15.8333C4.99799 15.8333 5.1591 15.7844 5.29615 15.6929C5.43319 15.6013 5.54 15.4712 5.60307 15.3189C5.66614 15.1666 5.68265 14.9991 5.65049 14.8374C5.61834 14.6758 5.53897 14.5273 5.42243 14.4107C5.30588 14.2942 5.1574 14.2148 4.99575 14.1827C4.8341 14.1505 4.66654 14.167 4.51427 14.2301C4.362 14.2932 4.23185 14.4 4.14028 14.537C4.04871 14.674 3.99984 14.8352 3.99984 15C3.99984 15.221 4.08764 15.433 4.24392 15.5892C4.4002 15.7455 4.61216 15.8333 4.83317 15.8333Z" fill="black"/>
</svg>
