<svg width="20" height="20" viewBox="0 0 20 20" fill="none" xmlns="http://www.w3.org/2000/svg">
<path d="M17.4102 11C17.1902 11 16.9602 10.93 16.7402 10.88C16.295 10.7805 15.8573 10.6501 15.4302 10.49C14.9663 10.3212 14.4563 10.33 13.9985 10.5146C13.5406 10.6992 13.1673 11.0466 12.9502 11.49L12.7302 11.95C11.759 11.3992 10.8618 10.7271 10.0602 9.95C9.28302 9.14837 8.61097 8.25118 8.06017 7.28L8.52017 7.07C8.96354 6.85292 9.31095 6.47953 9.49557 6.02169C9.68018 5.56385 9.68894 5.05391 9.52017 4.59C9.36136 4.15903 9.23108 3.71808 9.13017 3.27C9.08017 3.05 9.04017 2.82 9.01017 2.6C8.88874 1.89562 8.5198 1.25774 7.96979 0.801239C7.41979 0.344737 6.72487 0.0996088 6.01017 0.11H3.00017C2.57742 0.109446 2.15932 0.198248 1.77329 0.370584C1.38726 0.54292 1.04201 0.794898 0.760172 1.11C0.472492 1.43365 0.258287 1.81575 0.132275 2.23004C0.00626327 2.64432 -0.0285688 3.08098 0.0301719 3.51C0.573759 7.67214 2.47538 11.5387 5.44017 14.51C8.41152 17.4748 12.278 19.3764 16.4402 19.92C16.57 19.9299 16.7004 19.9299 16.8302 19.92C17.5676 19.9211 18.2796 19.6505 18.8302 19.16C19.1453 18.8782 19.3973 18.5329 19.5696 18.1469C19.7419 17.7609 19.8307 17.3428 19.8302 16.92V13.92C19.8248 13.229 19.581 12.5611 19.1401 12.0291C18.6992 11.4971 18.0881 11.1336 17.4102 11ZM17.9002 17C17.8998 17.1395 17.8703 17.2775 17.8135 17.4049C17.7566 17.5324 17.6738 17.6465 17.5702 17.74C17.4606 17.8399 17.3301 17.9141 17.1883 17.9573C17.0465 18.0006 16.8968 18.0117 16.7502 17.99C13.0184 17.5026 9.55042 15.802 6.88017 13.15C4.20764 10.4775 2.4922 6.99737 2.00017 3.25C1.97845 3.10333 1.98961 2.95367 2.03285 2.81185C2.07608 2.67003 2.15032 2.5396 2.25017 2.43C2.34479 2.32515 2.46055 2.24154 2.58982 2.18466C2.71909 2.12778 2.85894 2.09892 3.00017 2.1H6.00017C6.23133 2.09435 6.45731 2.16898 6.63964 2.3112C6.82196 2.45341 6.94937 2.65442 7.00017 2.88C7.00017 3.15 7.09017 3.43 7.15017 3.7C7.26575 4.22386 7.41949 4.73857 7.61017 5.24L6.21017 5.9C5.96954 6.01046 5.78253 6.21185 5.69017 6.46C5.59015 6.70346 5.59015 6.97654 5.69017 7.22C7.12937 10.3028 9.60742 12.7808 12.6902 14.22C12.9336 14.32 13.2067 14.32 13.4502 14.22C13.6983 14.1276 13.8997 13.9406 14.0102 13.7L14.6402 12.3C15.1561 12.4881 15.6839 12.6418 16.2202 12.76C16.4802 12.82 16.7602 12.87 17.0302 12.91C17.2558 12.9608 17.4568 13.0882 17.599 13.2705C17.7412 13.4529 17.8158 13.6788 17.8102 13.91L17.9002 17ZM12.0002 0C11.7702 0 11.5302 0 11.3002 0C11.035 0.0225434 10.7896 0.14952 10.618 0.352997C10.4464 0.556474 10.3626 0.819784 10.3852 1.085C10.4077 1.35022 10.5347 1.59562 10.7382 1.76721C10.9416 1.93881 11.205 2.02254 11.4702 2H12.0002C13.5915 2 15.1176 2.63214 16.2428 3.75736C17.368 4.88258 18.0002 6.4087 18.0002 8C18.0002 8.18 18.0002 8.35 18.0002 8.53C17.978 8.79381 18.0613 9.05565 18.2319 9.2581C18.4025 9.46055 18.6464 9.5871 18.9102 9.61H18.9902C19.2405 9.61102 19.4821 9.5181 19.6673 9.34961C19.8524 9.18113 19.9676 8.94932 19.9902 8.7C19.9902 8.47 19.9902 8.23 19.9902 8C19.9902 5.88 19.1487 3.84668 17.6506 2.34668C16.1524 0.846674 14.1202 0.00265 12.0002 0ZM14.0002 8C14.0002 8.26522 14.1055 8.51957 14.2931 8.70711C14.4806 8.89464 14.735 9 15.0002 9C15.2654 9 15.5197 8.89464 15.7073 8.70711C15.8948 8.51957 16.0002 8.26522 16.0002 8C16.0002 6.93913 15.5787 5.92172 14.8286 5.17157C14.0785 4.42143 13.061 4 12.0002 4C11.735 4 11.4806 4.10536 11.2931 4.29289C11.1055 4.48043 11.0002 4.73478 11.0002 5C11.0002 5.26522 11.1055 5.51957 11.2931 5.70711C11.4806 5.89464 11.735 6 12.0002 6C12.5306 6 13.0393 6.21071 13.4144 6.58579C13.7895 6.96086 14.0002 7.46957 14.0002 8Z" fill="#2980B9"/>
</svg>
