<svg width="26" height="20" viewBox="0 0 26 20" fill="none" xmlns="http://www.w3.org/2000/svg">
<path d="M21.75 6.87502H21.35L19.7875 2.97502C19.5084 2.28159 19.0285 1.68737 18.4093 1.26865C17.7902 0.849919 17.06 0.625786 16.3125 0.625015H8.8125C7.94411 0.62253 7.10178 0.921504 6.42927 1.47091C5.75677 2.02031 5.29578 2.78608 5.125 3.63752L4.475 6.87502H4.25C3.25544 6.87502 2.30161 7.2701 1.59835 7.97336C0.895088 8.67663 0.5 9.63045 0.5 10.625V14.375C0.5 14.7065 0.631696 15.0245 0.866116 15.2589C1.10054 15.4933 1.41848 15.625 1.75 15.625H3C3 16.6196 3.39509 17.5734 4.09835 18.2767C4.80161 18.9799 5.75544 19.375 6.75 19.375C7.74456 19.375 8.69839 18.9799 9.40165 18.2767C10.1049 17.5734 10.5 16.6196 10.5 15.625H15.5C15.5 16.6196 15.8951 17.5734 16.5983 18.2767C17.3016 18.9799 18.2554 19.375 19.25 19.375C20.2446 19.375 21.1984 18.9799 21.9017 18.2767C22.6049 17.5734 23 16.6196 23 15.625H24.25C24.5815 15.625 24.8995 15.4933 25.1339 15.2589C25.3683 15.0245 25.5 14.7065 25.5 14.375V10.625C25.5 9.63045 25.1049 8.67663 24.4017 7.97336C23.6984 7.2701 22.7446 6.87502 21.75 6.87502ZM14.25 3.12502H16.3125C16.5607 3.12726 16.8026 3.20336 17.0074 3.34361C17.2123 3.48385 17.3707 3.6819 17.4625 3.91252L18.65 6.87502H14.25V3.12502ZM7.575 4.12502C7.63344 3.83842 7.79053 3.58139 8.01893 3.39868C8.24733 3.21596 8.53257 3.11912 8.825 3.12502H11.75V6.87502H7.025L7.575 4.12502ZM6.75 16.875C6.50277 16.875 6.2611 16.8017 6.05554 16.6644C5.84998 16.527 5.68976 16.3318 5.59515 16.1034C5.50054 15.875 5.47579 15.6236 5.52402 15.3812C5.57225 15.1387 5.6913 14.9159 5.86612 14.7411C6.04093 14.5663 6.26366 14.4473 6.50614 14.399C6.74861 14.3508 6.99995 14.3756 7.22835 14.4702C7.45676 14.5648 7.65199 14.725 7.78934 14.9306C7.92669 15.1361 8 15.3778 8 15.625C8 15.9565 7.8683 16.2745 7.63388 16.5089C7.39946 16.7433 7.08152 16.875 6.75 16.875ZM19.25 16.875C19.0028 16.875 18.7611 16.8017 18.5555 16.6644C18.35 16.527 18.1898 16.3318 18.0951 16.1034C18.0005 15.875 17.9758 15.6236 18.024 15.3812C18.0723 15.1387 18.1913 14.9159 18.3661 14.7411C18.5409 14.5663 18.7637 14.4473 19.0061 14.399C19.2486 14.3508 19.4999 14.3756 19.7284 14.4702C19.9568 14.5648 20.152 14.725 20.2893 14.9306C20.4267 15.1361 20.5 15.3778 20.5 15.625C20.5 15.9565 20.3683 16.2745 20.1339 16.5089C19.8995 16.7433 19.5815 16.875 19.25 16.875ZM23 13.125H22.025C21.6735 12.7383 21.2451 12.4294 20.7672 12.2179C20.2894 12.0065 19.7726 11.8973 19.25 11.8973C18.7274 11.8973 18.2106 12.0065 17.7328 12.2179C17.2549 12.4294 16.8265 12.7383 16.475 13.125H9.525C9.17352 12.7383 8.74511 12.4294 8.26723 12.2179C7.78935 12.0065 7.27256 11.8973 6.75 11.8973C6.22744 11.8973 5.71065 12.0065 5.23277 12.2179C4.75489 12.4294 4.32648 12.7383 3.975 13.125H3V10.625C3 10.2935 3.1317 9.97555 3.36612 9.74113C3.60054 9.50671 3.91848 9.37502 4.25 9.37502H21.75C22.0815 9.37502 22.3995 9.50671 22.6339 9.74113C22.8683 9.97555 23 10.2935 23 10.625V13.125Z" fill="black"/>
</svg>
