<svg width="18" height="18" viewBox="0 0 18 18" fill="none" xmlns="http://www.w3.org/2000/svg">
<path d="M8.99984 0.666687C7.35166 0.666687 5.7405 1.15543 4.37009 2.07111C2.99968 2.98679 1.93158 4.28827 1.30084 5.81099C0.670115 7.33371 0.505087 9.00926 0.82663 10.6258C1.14817 12.2423 1.94185 13.7271 3.10728 14.8926C4.27272 16.058 5.75758 16.8517 7.37409 17.1732C8.9906 17.4948 10.6662 17.3297 12.1889 16.699C13.7116 16.0683 15.0131 15.0002 15.9288 13.6298C16.8444 12.2594 17.3332 10.6482 17.3332 9.00002C17.3332 7.90567 17.1176 6.82204 16.6988 5.81099C16.28 4.79994 15.6662 3.88129 14.8924 3.10746C14.1186 2.33364 13.1999 1.71981 12.1889 1.30102C11.1778 0.882235 10.0942 0.666687 8.99984 0.666687ZM8.99984 15.6667C7.6813 15.6667 6.39237 15.2757 5.29604 14.5432C4.19971 13.8106 3.34523 12.7694 2.84064 11.5512C2.33606 10.3331 2.20404 8.99263 2.46127 7.69942C2.71851 6.40621 3.35345 5.21833 4.2858 4.28598C5.21815 3.35363 6.40603 2.71869 7.69924 2.46145C8.99245 2.20422 10.3329 2.33624 11.5511 2.84082C12.7692 3.34541 13.8104 4.19989 14.543 5.29622C15.2755 6.39255 15.6665 7.68148 15.6665 9.00002C15.6665 10.7681 14.9641 12.4638 13.7139 13.7141C12.4636 14.9643 10.768 15.6667 8.99984 15.6667ZM10.7498 7.02502L9.83317 7.55835V4.83335C9.83317 4.61234 9.74538 4.40038 9.5891 4.2441C9.43282 4.08782 9.22085 4.00002 8.99984 4.00002C8.77883 4.00002 8.56687 4.08782 8.41059 4.2441C8.25431 4.40038 8.16651 4.61234 8.16651 4.83335V9.00002C8.16651 9.00002 8.16651 9.00002 8.16651 9.05002C8.16259 9.10551 8.16259 9.1612 8.16651 9.21669C8.17941 9.26786 8.19612 9.318 8.21651 9.36669C8.21651 9.36669 8.21651 9.36669 8.21651 9.41669C8.25631 9.4758 8.3009 9.53155 8.34984 9.58335C8.41716 9.6501 8.49628 9.70379 8.58317 9.74169H8.64984C8.75839 9.79751 8.87787 9.8288 8.99984 9.83335C9.09696 9.83058 9.19285 9.81083 9.28317 9.77502H9.35817H9.41651L11.5832 8.52502C11.7755 8.41451 11.916 8.23215 11.9738 8.01805C12.0316 7.80394 12.002 7.57564 11.8915 7.38335C11.781 7.19107 11.5986 7.05056 11.3845 6.99274C11.1704 6.93492 10.9421 6.96451 10.7498 7.07502V7.02502Z" fill="black"/>
</svg>
