<svg width="213" height="48" viewBox="0 0 213 48" fill="none" xmlns="http://www.w3.org/2000/svg">
<path d="M24.6723 18.104C27.6483 17.096 29.5203 14.216 29.5203 10.712C29.5203 5.672 25.5363 2.36 18.6243 2.36H0.91225V7.448H5.04025V29.912H0.91225V35H19.2483C26.4963 35 31.0083 31.448 31.0083 25.976C31.0083 22.28 29.0403 18.968 24.6723 18.104ZM10.8003 7.448H18.2403C22.2723 7.448 24.0963 8.984 24.0963 11.624C24.0963 14.36 22.2723 16.136 18.2403 16.136H10.8003V7.448ZM10.8003 29.912V21.32H19.6323C23.3763 21.32 25.3443 22.712 25.3443 25.352C25.3443 27.896 23.3763 29.912 19.1043 29.912H10.8003ZM61.999 29.912H58.303V12.296H49.183V17.384H52.783V27.368C51.055 29.528 48.895 30.68 46.927 30.68C43.471 30.68 41.359 28.424 41.359 24.488V12.296H32.191V17.384H35.839V24.824C35.839 31.4 39.823 35.72 45.775 35.72C48.511 35.72 50.815 34.76 52.783 33.128V35H61.999V29.912ZM90.934 29.912H87.286V0.919998H78.118V6.008H81.766V13.88C79.894 12.536 77.542 11.768 74.806 11.768C68.47 11.768 63.382 17.048 63.382 23.624C63.382 30.248 68.47 35.528 74.806 35.528C77.542 35.528 79.894 34.76 81.766 33.368V35H90.934V29.912ZM75.622 30.728C71.734 30.728 68.902 27.416 68.902 23.624C68.902 19.88 71.734 16.568 75.622 16.568C77.782 16.568 79.798 17.288 81.766 19.4V28.088C79.798 30.008 77.782 30.728 75.622 30.728ZM117.853 17.384H121.501V12.296H112.333V14.024C110.461 12.632 108.013 11.768 105.325 11.768C98.701 11.768 93.757 17.048 93.757 23.672C93.757 30.248 98.701 35.528 105.325 35.528C108.013 35.528 110.461 34.664 112.333 33.272V36.392C112.333 40.04 109.597 42.2 105.901 42.2C102.541 42.2 100.237 40.424 99.853 37.784H94.237C94.813 43.304 99.517 47.24 105.997 47.24C112.813 47.24 117.901 43.016 117.901 36.392H117.853V17.384ZM106.093 30.728C101.965 30.728 99.277 27.416 99.277 23.672C99.277 19.88 101.965 16.568 106.093 16.568C108.397 16.568 110.749 17.576 112.333 20.072V27.224C110.749 29.72 108.397 30.728 106.093 30.728ZM146.238 23.288C146.238 16.472 141.534 11.768 134.91 11.768C127.998 11.768 123.054 16.904 123.054 23.672C123.054 30.392 127.902 35.72 135.15 35.72C140.334 35.72 144.558 32.888 145.854 28.712H139.95C139.086 30.104 137.502 30.824 135.342 30.824C131.454 30.824 129.342 28.664 128.622 25.832H146.046H146.094C146.238 24.968 146.238 24.104 146.238 23.288ZM135.054 16.136C138.462 16.136 140.478 18.392 140.958 21.464H128.622C129.342 18.536 131.502 16.136 135.054 16.136ZM183.762 7.448V2.36H169.794V7.448H173.922V20.504C173.922 26.312 170.418 30.344 165.186 30.344C160.002 30.344 156.546 26.312 156.546 20.504V7.448H160.626V2.36H146.658V7.448H150.786V20.504C150.786 29.864 156.546 35.72 165.186 35.72C173.874 35.72 179.634 29.864 179.634 20.504V7.448H183.762ZM200.922 11.768C198.138 11.768 195.786 12.584 193.914 13.928V12.296H184.794V17.384H188.394V39.848H184.794V44.936H199.194V39.848H193.914V33.368C195.786 34.712 198.138 35.528 200.922 35.528C207.258 35.528 212.346 30.248 212.346 23.672C212.346 17.048 207.258 11.768 200.922 11.768ZM200.058 30.728C197.946 30.728 195.882 30.008 193.914 28.04V19.256C195.882 17.288 197.946 16.568 200.058 16.568C203.994 16.568 206.778 19.88 206.778 23.672C206.778 27.416 203.994 30.728 200.058 30.728Z" fill="white"/>
</svg>
