<svg width="30" height="30" viewBox="0 0 30 30" fill="none" xmlns="http://www.w3.org/2000/svg">
<path d="M8.275 16.35C8.11988 16.4062 7.979 16.4957 7.86236 16.6124C7.74571 16.729 7.65614 16.8699 7.6 17.025C7.50907 17.2522 7.48681 17.501 7.53598 17.7407C7.58515 17.9804 7.70359 18.2004 7.8766 18.3734C8.04962 18.5464 8.26961 18.6649 8.5093 18.714C8.74899 18.7632 8.99784 18.741 9.225 18.65C9.37648 18.5867 9.516 18.4979 9.6375 18.3875C9.74791 18.266 9.8367 18.1265 9.9 17.975C9.96998 17.8267 10.0042 17.664 10 17.5C9.9954 17.1691 9.86592 16.8521 9.6375 16.6125C9.46172 16.4391 9.2385 16.3216 8.99602 16.2749C8.75353 16.2282 8.50264 16.2543 8.275 16.35ZM24.7 11.35L23 6.31253C22.7407 5.57907 22.2597 4.94441 21.6236 4.49648C20.9876 4.04855 20.2279 3.80953 19.45 3.81253H10.55C9.77205 3.80953 9.01243 4.04855 8.37637 4.49648C7.74032 4.94441 7.25931 5.57907 7 6.31253L5.3 11.3875C4.50041 11.5969 3.7924 12.0646 3.28604 12.7179C2.77968 13.3712 2.50335 14.1735 2.5 15V20C2.50217 20.7737 2.7436 21.5278 3.19117 22.1589C3.63875 22.7899 4.27056 23.2671 5 23.525V25C5 25.3316 5.1317 25.6495 5.36612 25.8839C5.60054 26.1183 5.91848 26.25 6.25 26.25C6.58152 26.25 6.89946 26.1183 7.13388 25.8839C7.3683 25.6495 7.5 25.3316 7.5 25V23.75H22.5V25C22.5 25.3316 22.6317 25.6495 22.8661 25.8839C23.1005 26.1183 23.4185 26.25 23.75 26.25C24.0815 26.25 24.3995 26.1183 24.6339 25.8839C24.8683 25.6495 25 25.3316 25 25V23.525C25.7294 23.2671 26.3613 22.7899 26.8088 22.1589C27.2564 21.5278 27.4978 20.7737 27.5 20V15C27.4967 14.1735 27.2203 13.3712 26.714 12.7179C26.2076 12.0646 25.4996 11.5969 24.7 11.3875V11.35ZM9.3625 7.10003C9.44636 6.85175 9.60612 6.63611 9.81921 6.48358C10.0323 6.33105 10.2879 6.24935 10.55 6.25003H19.45C19.7226 6.2358 19.9923 6.31119 20.218 6.46467C20.4438 6.61816 20.613 6.8413 20.7 7.10003L22.0125 11.25H7.9875L9.3625 7.10003ZM25 20C25 20.3316 24.8683 20.6495 24.6339 20.8839C24.3995 21.1183 24.0815 21.25 23.75 21.25H6.25C5.91848 21.25 5.60054 21.1183 5.36612 20.8839C5.1317 20.6495 5 20.3316 5 20V15C5 14.6685 5.1317 14.3506 5.36612 14.1161C5.60054 13.8817 5.91848 13.75 6.25 13.75H23.75C24.0815 13.75 24.3995 13.8817 24.6339 14.1161C24.8683 14.3506 25 14.6685 25 15V20ZM20.775 16.35C20.6199 16.4062 20.479 16.4957 20.3624 16.6124C20.2457 16.729 20.1561 16.8699 20.1 17.025C20.0091 17.2522 19.9868 17.501 20.036 17.7407C20.0852 17.9804 20.2036 18.2004 20.3766 18.3734C20.5496 18.5464 20.7696 18.6649 21.0093 18.714C21.249 18.7632 21.4978 18.741 21.725 18.65C21.8801 18.5939 22.021 18.5043 22.1376 18.3877C22.2543 18.271 22.3439 18.1301 22.4 17.975C22.47 17.8267 22.5042 17.664 22.5 17.5C22.4954 17.1691 22.3659 16.8521 22.1375 16.6125C21.9617 16.4391 21.7385 16.3216 21.496 16.2749C21.2535 16.2282 21.0026 16.2543 20.775 16.35ZM16.25 16.25H13.75C13.4185 16.25 13.1005 16.3817 12.8661 16.6161C12.6317 16.8506 12.5 17.1685 12.5 17.5C12.5 17.8316 12.6317 18.1495 12.8661 18.3839C13.1005 18.6183 13.4185 18.75 13.75 18.75H16.25C16.5815 18.75 16.8995 18.6183 17.1339 18.3839C17.3683 18.1495 17.5 17.8316 17.5 17.5C17.5 17.1685 17.3683 16.8506 17.1339 16.6161C16.8995 16.3817 16.5815 16.25 16.25 16.25Z" fill="#CCCCCC"/>
</svg>
